<svg width="46" height="46" viewBox="0 0 46 46" fill="none" xmlns="http://www.w3.org/2000/svg">
<path d="M23 0C10.2983 0 0 10.4595 0 23.3601C0 34.3063 7.42133 43.4654 17.4263 46C17.319 45.6846 17.25 45.3187 17.25 44.8651V40.8725C16.3166 40.8725 14.7526 40.8725 14.3597 40.8725C12.7861 40.8725 11.3869 40.1853 10.7084 38.9083C9.95517 37.4891 9.82483 35.3186 7.958 33.9909C7.40408 33.5491 7.82575 33.0449 8.464 33.113C9.64275 33.4517 10.6202 34.2732 11.5402 35.4918C12.4564 36.7124 12.8877 36.9888 14.5992 36.9888C15.4292 36.9888 16.6712 36.9402 17.8403 36.7533C18.469 35.1317 19.5557 33.6386 20.884 32.9339C13.225 32.1338 9.56992 28.2638 9.56992 23.0097C9.56992 20.7477 10.5187 18.5596 12.1306 16.7161C11.6016 14.8862 10.9365 11.1545 12.3338 9.73339C15.7799 9.73339 17.8633 12.0032 18.3636 12.6164C20.0809 12.0188 21.9669 11.6801 23.9487 11.6801C25.9344 11.6801 27.8281 12.0188 29.5492 12.6203C30.0437 12.011 32.1291 9.73339 35.5829 9.73339C36.9859 11.1564 36.3132 14.9038 35.7784 16.7298C37.3807 18.5694 38.3237 20.7516 38.3237 23.0097C38.3237 28.2599 34.6744 32.128 27.0269 32.932C29.1314 34.0474 30.6667 37.1815 30.6667 39.5429V44.8651C30.6667 45.0675 30.6226 45.2135 30.5996 45.3868C39.5619 42.1962 46 33.5529 46 23.3601C46 10.4595 35.7017 0 23 0Z" fill="#455964"/>
</svg>
