<svg width="46" height="46" viewBox="0 0 46 46" fill="none" xmlns="http://www.w3.org/2000/svg">
<g clip-path="url(#clip0_3_30)">
<path fill-rule="evenodd" clip-rule="evenodd" d="M46 23C46 35.7025 35.7025 46 23 46C10.2975 46 0 35.7025 0 23C0 10.2975 10.2975 0 23 0C35.7025 0 46 10.2975 46 23ZM8.625 29.5884C8.625 33.8822 12.1181 37.375 16.4116 37.375H29.5884C33.8822 37.375 37.375 33.8822 37.375 29.5888V16.4116C37.375 12.1178 33.8822 8.625 29.5884 8.625H16.4116C12.1181 8.625 8.625 12.1178 8.625 16.4116V29.5884ZM11.021 16.4116C11.021 13.4392 13.4392 11.021 16.4116 11.021H29.5884C32.5608 11.021 34.979 13.4392 34.979 16.4116V29.5888C34.979 32.5612 32.5608 34.9794 29.5884 34.9794H16.4116C13.4392 34.9794 11.021 32.5612 11.021 29.5888V16.4116ZM15.8125 23C15.8125 26.9628 19.0368 30.1875 23 30.1875C26.9632 30.1875 30.1875 26.9628 30.1875 23C30.1875 19.0365 26.9632 15.8125 23 15.8125C19.0368 15.8125 15.8125 19.0365 15.8125 23ZM18.2085 23C18.2085 20.3579 20.3579 18.2085 23 18.2085C25.6425 18.2085 27.7915 20.3579 27.7915 23C27.7915 25.6425 25.6421 27.7915 23 27.7915C20.3579 27.7915 18.2085 25.6425 18.2085 23ZM30.6367 17.0103C31.5463 17.0103 32.2837 16.2729 32.2837 15.3633C32.2837 14.4537 31.5463 13.7163 30.6367 13.7163C29.7271 13.7163 28.9897 14.4537 28.9897 15.3633C28.9897 16.2729 29.7271 17.0103 30.6367 17.0103Z" fill="white"/>
</g>
<defs>
<clipPath id="clip0_3_30">
<rect width="46" height="46" fill="white"/>
</clipPath>
</defs>
</svg>
