<svg width="46" height="46" viewBox="0 0 46 46" fill="none" xmlns="http://www.w3.org/2000/svg">
<path d="M23 46C35.7025 46 46 35.7025 46 23C46 10.2975 35.7025 0 23 0C10.2975 0 0 10.2975 0 23C0 35.7025 10.2975 46 23 46Z" fill="url(#paint0_linear_3_44)"/>
<path fill-rule="evenodd" clip-rule="evenodd" d="M16.4116 37.375C12.1181 37.375 8.625 33.8822 8.625 29.5884V16.4116C8.625 12.1178 12.1181 8.625 16.4116 8.625H29.5884C33.8822 8.625 37.375 12.1178 37.375 16.4116V29.5888C37.375 33.8822 33.8822 37.375 29.5884 37.375H16.4116ZM16.4116 11.021C13.4392 11.021 11.021 13.4392 11.021 16.4116V29.5888C11.021 32.5612 13.4392 34.9794 16.4116 34.9794H29.5884C32.5608 34.9794 34.979 32.5612 34.979 29.5888V16.4116C34.979 13.4392 32.5608 11.021 29.5884 11.021H16.4116ZM23 30.1875C19.0368 30.1875 15.8125 26.9628 15.8125 23C15.8125 19.0365 19.0368 15.8125 23 15.8125C26.9632 15.8125 30.1875 19.0365 30.1875 23C30.1875 26.9628 26.9632 30.1875 23 30.1875ZM23 18.2085C20.3579 18.2085 18.2085 20.3579 18.2085 23C18.2085 25.6425 20.3579 27.7915 23 27.7915C25.6421 27.7915 27.7915 25.6425 27.7915 23C27.7915 20.3579 25.6425 18.2085 23 18.2085ZM32.2837 15.3633C32.2837 16.2729 31.5463 17.0103 30.6367 17.0103C29.7271 17.0103 28.9897 16.2729 28.9897 15.3633C28.9897 14.4537 29.7271 13.7163 30.6367 13.7163C31.5463 13.7163 32.2837 14.4537 32.2837 15.3633Z" fill="white"/>
<defs>
<linearGradient id="paint0_linear_3_44" x1="9.80684" y1="41.8423" x2="36.1936" y2="4.15811" gradientUnits="userSpaceOnUse">
<stop stop-color="#FFB900"/>
<stop offset="1" stop-color="#9100EB"/>
</linearGradient>
</defs>
</svg>
