<svg width="46" height="46" viewBox="0 0 46 46" fill="none" xmlns="http://www.w3.org/2000/svg">
<path d="M23 0C10.2983 0 0 10.2983 0 23C0 35.7017 10.2983 46 23 46C35.7017 46 46 35.7017 46 23C46 10.2983 35.7017 0 23 0ZM14.3673 10.3557C15.9812 10.3557 17.0564 11.431 17.0564 12.8647C17.0564 14.2983 15.9812 15.3736 14.1891 15.3736C12.5752 15.3755 11.5 14.2983 11.5 12.8647C11.5 11.431 12.5753 10.3557 14.3673 10.3557ZM17.25 32.5833H11.5V17.25H17.25V32.5833ZM36.4167 32.5833H31.004V24.2037C31.004 21.8864 29.5608 21.3517 29.0203 21.3517C28.4798 21.3517 26.6742 21.7082 26.6742 24.2037C26.6742 24.5602 26.6742 32.5833 26.6742 32.5833H21.0833V17.25H26.6762V19.389C27.3968 18.1412 28.8401 17.25 31.5464 17.25C34.2527 17.25 36.4167 19.389 36.4167 24.2037V32.5833Z" fill="white"/>
</svg>
